<svg width="515" height="580" viewBox="0 0 515 580" fill="none" xmlns="http://www.w3.org/2000/svg">
<mask id="path-1-outside-1_149_2" maskUnits="userSpaceOnUse" x="0" y="65" width="450" height="450" fill="black">
<rect fill="white" y="65" width="450" height="450"/>
<path d="M225 390H425V490H25V390H75V440H125V390H175V340H225V390ZM125 390H75V340H125V390ZM175 340H125V290H175V340ZM275 340H225V290H275V340ZM225 290H175V240H225V290ZM325 290H275V240H325V290ZM425 190H375V140H325V190H275V240H225V190H25V90H425V190ZM375 240H325V190H375V240Z"/>
</mask>
<path d="M225 390H425V490H25V390H75V440H125V390H175V340H225V390ZM125 390H75V340H125V390ZM175 340H125V290H175V340ZM275 340H225V290H275V340ZM225 290H175V240H225V290ZM325 290H275V240H325V290ZM425 190H375V140H325V190H275V240H225V190H25V90H425V190ZM375 240H325V190H375V240Z" fill="#ED2024"/>
<path d="M225 390H200V415H225V390ZM425 390H450V365H425V390ZM425 490V515H450V490H425ZM25 490H0V515H25V490ZM25 390V365H0V390H25ZM75 440H50V465H75V440ZM125 440V465H150V440H125ZM175 390V415H200V390H175ZM75 340V315H50V340H75ZM125 290V265H100V290H125ZM275 340V365H300V340H275ZM175 240V215H150V240H175ZM325 290V315H350V290H325ZM425 190V215H450V190H425ZM375 140H400V115H375V140ZM325 140V115H300V140H325ZM275 190V165H250V190H275ZM225 190H250V165H225V190ZM25 190H0V215H25V190ZM25 90V65H0V90H25ZM425 90H450V65H425V90ZM375 240V265H400V240H375ZM225 390V415H425V390V365H225V390ZM425 390H400V490H425H450V390H425ZM425 490V465H25V490V515H425V490ZM25 490H50V390H25H0V490H25ZM25 390V415H75V390V365H25V390ZM75 390H50V440H75H100V390H75ZM75 440V465H125V440V415H75V440ZM125 440H150V390H125H100V440H125ZM125 390V415H175V390V365H125V390ZM175 390H200V340H175H150V390H175ZM175 340V365H225V340V315H175V340ZM225 340H200V390H225H250V340H225ZM125 390V365H75V390V415H125V390ZM75 390H100V340H75H50V390H75ZM75 340V365H125V340V315H75V340ZM125 340H100V390H125H150V340H125ZM175 340V315H125V340V365H175V340ZM125 340H150V290H125H100V340H125ZM125 290V315H175V290V265H125V290ZM175 290H150V340H175H200V290H175ZM275 340V315H225V340V365H275V340ZM225 340H250V290H225H200V340H225ZM225 290V315H275V290V265H225V290ZM275 290H250V340H275H300V290H275ZM225 290V265H175V290V315H225V290ZM175 290H200V240H175H150V290H175ZM175 240V265H225V240V215H175V240ZM225 240H200V290H225H250V240H225ZM325 290V265H275V290V315H325V290ZM275 290H300V240H275H250V290H275ZM275 240V265H325V240V215H275V240ZM325 240H300V290H325H350V240H325ZM425 190V165H375V190V215H425V190ZM375 190H400V140H375H350V190H375ZM375 140V115H325V140V165H375V140ZM325 140H300V190H325H350V140H325ZM325 190V165H275V190V215H325V190ZM275 190H250V240H275H300V190H275ZM275 240V215H225V240V265H275V240ZM225 240H250V190H225H200V240H225ZM225 190V165H25V190V215H225V190ZM25 190H50V90H25H0V190H25ZM25 90V115H425V90V65H25V90ZM425 90H400V190H425H450V90H425ZM375 240V215H325V240V265H375V240ZM325 240H350V190H325H300V240H325ZM325 190V215H375V190V165H325V190ZM375 190H350V240H375H400V190H375Z" fill="black" mask="url(#path-1-outside-1_149_2)"/>
</svg>
